# xmcd CD database file
#
# Track frame offsets:
#	150
#	12825
#	22652
#	35415
#	45940
#	54902
#	67192
#	84475
#	97555
#	107677
#	140705
#	151960
#
# Disc length: 2180 seconds
#
# Revision: 4
# Processed by: cddbd v1.5.2PL0 Copyright (c) Steve Scherf et al.
# Submitted via: CDex 1.51
#
DISCID=8308820c
DTITLE=Elvis Presley - The Wonderful World Of Christmas
DYEAR=1988
DGENRE=Christmas
TTITLE0=O Come, All Ye Faithful
TTITLE1=The First Noel
TTITLE2=On A Snowy Christmas Night
TTITLE3=Winter Wonderland
TTITLE4=The Wonderful World Of Christmas
TTITLE5=It Won't Seem Like Christmas (Without You)
TTITLE6=I'll Be Home On Christmas Day
TTITLE7=If I Get Home On Christmas Day
TTITLE8=Holly Leaves And Christmas Trees
TTITLE9=Merry Christmas Baby (Extended Version)
TTITLE10=Silver Bells
TTITLE11=Blue Christmas (From the 1968 NBC-TV Special)
EXTD=BMG Music 4579-2-R. Made in U.S.A.\n YEAR: 1988
EXTT0=
EXTT1=
EXTT2=
EXTT3=
EXTT4=
EXTT5=
EXTT6=
EXTT7=
EXTT8=
EXTT9=
EXTT10=
EXTT11=
PLAYORDER=
